<?xml version="1.0" encoding="UTF-8" standalone="no"?>
<svg
   xmlns:dc="http://purl.org/dc/elements/1.1/"
   xmlns:cc="http://creativecommons.org/ns#"
   xmlns:rdf="http://www.w3.org/1999/02/22-rdf-syntax-ns#"
   xmlns:svg="http://www.w3.org/2000/svg"
   xmlns="http://www.w3.org/2000/svg"
   viewBox="0 0 2382.6667 317.33334"
   height="317.33334"
   width="2382.6667"
   id="svg3925"
   version="1.1">
  <metadata
     id="metadata3931">
    <rdf:RDF>
      <cc:Work
         rdf:about="">
        <dc:format>image/svg+xml</dc:format>
        <dc:type
           rdf:resource="http://purl.org/dc/dcmitype/StillImage" />
        <dc:title></dc:title>
      </cc:Work>
    </rdf:RDF>
  </metadata>
  <defs
     id="defs3929" />
  <path
     id="path4756"
     d="M 72.493736,9.6550131 H 368.70082 V 305.81257 H 72.964902 Z"
     style="fill:none;stroke:#000000;stroke-width:1px;stroke-linecap:butt;stroke-linejoin:miter;stroke-opacity:1;fill-opacity:1" />
  <!-- <path
     id="path4758"
     d="m 153.27334,83.199271 39.22349,39.223489 v 114.65329 h -39.22349 z"
     style="fill:none;stroke:#000000;stroke-width:1px;stroke-linecap:butt;stroke-linejoin:miter;stroke-opacity:1;fill-opacity:1" />
  <path
     id="path4760"
     d="M 221.16015,121.21589 260.38364,81.992395 V 204.79209 h 49.78366 v 32.28396 h -88.10199 z"
     style="fill:none;stroke:#000000;stroke-width:1px;stroke-linecap:butt;stroke-linejoin:miter;stroke-opacity:1;fill-opacity:1" /> -->
  <path
     id="path4762"
     d="m 440.20826,72.035662 h 45.25788 V 247.03278 H 440.8117 Z"
     style="fill:none;stroke:#000000;stroke-width:1px;stroke-linecap:butt;stroke-linejoin:miter;stroke-opacity:1;fill-opacity:1" />
  <path
     id="path4764"
     d="M 533.43948,72.337381 503.26757,247.03278 H 547.922 l 15.6894,-99.86905 38.92177,99.86905 h 18.40487 l 41.33553,-99.56733 15.99111,99.86905 h 44.051 L 693.65236,71.733943 H 648.09277 L 613.39506,165.87032 577.49048,71.432224 Z"
     style="fill:none;stroke:#000000;stroke-width:1px;stroke-linecap:butt;stroke-linejoin:miter;stroke-opacity:1;fill-opacity:1" />
  <path
     style="fill:none;stroke:#000000;stroke-width:1px;stroke-linecap:butt;stroke-linejoin:miter;stroke-opacity:1;fill-opacity:1"
     d="M 762.14818,72.337381 731.97627,247.03278 h 44.65443 l 15.6894,-99.86905 38.92177,99.86905 h 18.40487 l 41.33553,-99.56733 15.99111,99.86905 h 44.051 L 922.36106,71.733943 H 876.80147 L 842.10376,165.87032 806.19918,71.432224 Z"
     id="path4781" />
  <path
     id="path4783"
     d="m 969.12196,72.035662 h 98.96384 V 110.354 h -54.3094 v 29.87019 h 51.2923 v 37.7149 h -50.9906 v 31.07707 h 54.0077 v 37.11146 h -98.96384 z"
     style="fill:none;stroke:#000000;stroke-width:1px;stroke-linecap:butt;stroke-linejoin:miter;stroke-opacity:1;fill-opacity:1" />
  <path
     id="path4820"
     d="m 1134.7962,107.61259 v 42.88288 c 18.3738,1.05108 37.0172,-0.21402 37.3359,-20.69473 -1.2634,-20.30387 -16.8492,-23.93455 -37.3359,-22.18815 z"
     style="fill:none;stroke:#000000;stroke-width:1px;stroke-linecap:butt;stroke-linejoin:miter;stroke-opacity:1;fill-opacity:1" />
  <path
     id="path4785"
     d="M 1089.5079,72.337381 V 247.3345 h 45.8613 v -66.37822 l 42.8441,65.47306 h 55.8181 l -54.9129,-71.20572 c 0,0 41.9704,-5.69953 38.7028,-48.79439 -4.6697,-61.585642 -48.0657,-54.486611 -128.3134,-54.091849 z"
     style="fill:none;stroke:#000000;stroke-width:1px;stroke-linecap:butt;stroke-linejoin:miter;stroke-opacity:1;fill-opacity:1" />
  <path
     id="path4787"
     d="m 1356.8311,81.388956 -16.8963,35.904584 c -21.7838,-14.54205 -40.0209,-19.62612 -49.7836,-2.11204 -6.0107,14.81156 14.5336,20.81414 41.0338,29.60508 19.4677,8.11354 34.8308,22.54232 32.5856,53.06597 -2.3267,35.3809 -26.158,51.59464 -65.473,54.00773 -18.0002,0.10581 -37.1129,-2.23592 -63.0593,-19.61174 l 19.31,-35.90458 c 17.6898,15.13749 47.6673,28.76316 60.3438,6.03438 9.01,-16.61645 -15.2573,-25.60686 -44.3527,-33.49083 -18.4162,-7.54428 -30.3672,-28.74537 -27.7216,-50.68882 0.9037,-23.549589 22.9834,-50.65153 60.7705,-50.813791 20.5855,-0.438978 36.6256,6.50637 53.2428,14.004057 z"
     style="fill:none;stroke:#000000;stroke-width:1px;stroke-linecap:butt;stroke-linejoin:miter;stroke-opacity:1;fill-opacity:1" />
  <path
     id="path4789"
     d="M 1381.2128,72.196873 V 247.35531 h 45.8698 V 71.983526 Z"
     style="fill:none;stroke:#000000;stroke-width:1px;stroke-linecap:butt;stroke-linejoin:miter;stroke-opacity:1;fill-opacity:1" />
  <path
     id="path4791"
     d="m 1433.6963,72.196873 73.605,175.158437 h 35.8424 l 74.6717,-175.371784 h -49.71 L 1525.8625,178.87071 1482.7663,71.770178 Z"
     style="fill:none;stroke:#000000;stroke-width:1px;stroke-linecap:butt;stroke-linejoin:miter;stroke-opacity:1;fill-opacity:1" />
  <path
     id="path4793"
     d="M 1624.0024,71.983526 V 246.92861 h 100.2735 v -38.40258 h -54.1904 v -30.29537 h 50.7768 v -38.61592 h -51.4168 v -29.22863 h 54.4037 V 71.770178 Z"
     style="fill:none;stroke:#000000;stroke-width:1px;stroke-linecap:butt;stroke-linejoin:miter;stroke-opacity:1;fill-opacity:1" />
  <path
     id="path4795"
     d="M 1744.7572,72.196873 V 247.14196 h 100.7001 v -38.82927 h -55.0437 V 72.196873 Z"
     style="fill:none;stroke:#000000;stroke-width:1px;stroke-linecap:butt;stroke-linejoin:miter;stroke-opacity:1;fill-opacity:1" />
  <path
     id="path4797"
     d="m 1851.0471,247.18364 66.3782,-174.846259 h 48.8785 l 66.6799,174.695399 h -47.3699 l -28.3616,-78.7487 4.8275,-26.24957 h -40.7321 l 6.0344,26.853 -28.5125,78.74871 z"
     style="fill:none;stroke:#000000;stroke-width:1px;stroke-linecap:butt;stroke-linejoin:miter;stroke-opacity:1;fill-opacity:1" />
  <path
     id="path4799"
     d="m 2038.3236,71.55683 v 175.37178 c 77.3055,2.25902 133.2135,7.88501 133.5367,-49.65847 0.2004,-35.68227 -20.4245,-37.20704 -34.33,-43.36111 20.0313,-18.89255 18.8829,-26.53373 18.219,-43.21978 -1.9617,-49.299 -61.4729,-38.024946 -117.4257,-39.13242 z"
     style="fill:none;stroke:#000000;stroke-width:1px;stroke-linecap:butt;stroke-linejoin:miter;stroke-opacity:1;fill-opacity:1" />
  <path
     id="path4801"
     d="m 2084.6201,107.39924 v 33.49558 c 14.5951,0.16344 28.7691,-0.14478 29.4419,-15.57438 0.1291,-14.9546 -11.999,-18.83811 -29.4419,-17.9212 z"
     style="fill:none;stroke:#000000;stroke-width:1px;stroke-linecap:butt;stroke-linejoin:miter;stroke-opacity:1;fill-opacity:1" />
  <path
     id="path4801-6"
     d="m 2085.0463,175.61574 0.4267,36.05575 c 8.9937,0.10071 22.5991,0.25731 31.3837,-3.73893 5.4713,-2.48892 8.6807,-6.9805 8.9389,-12.90219 0.067,-7.73804 -3.8287,-14.19186 -12.2855,-17.25619 -7.8868,-2.85783 -20.0465,-2.60091 -28.4638,-2.15844 z"
     style="fill:none;stroke:#000000;stroke-width:1px;stroke-linecap:butt;stroke-linejoin:miter;stroke-opacity:1;fill-opacity:1" />
  <path
     id="path4818"
     d="m 2302.2347,81.797518 -17.7079,35.629062 c -22.7833,-17.921127 -45.6942,-13.58658 -49.4081,-0.3689 -6.5209,23.20763 50.608,16.76284 68.3376,50.05389 4.4387,8.33466 6.8145,11.71978 6.8856,26.69347 -1.9252,38.75901 -29.6044,52.5086 -46.5711,56.36704 -36.1705,8.22561 -62.7276,-4.80523 -83.3576,-17.32441 l 19.628,-35.84241 c 36.3152,30.52579 60.3205,13.92876 62.0833,2.60783 5.2797,-33.90655 -77.4704,-13.09142 -74.6709,-74.71934 1.2692,-32.895321 16.2863,-44.231418 30.426,-51.576135 22.2123,-11.537937 53.0887,-6.364284 84.3551,8.479903 z"
     style="fill:none;stroke:#000000;stroke-width:1px;stroke-linecap:butt;stroke-linejoin:miter;stroke-opacity:1;fill-opacity:1" />
</svg>
